<svg xmlns="http://www.w3.org/2000/svg" viewBox="0 0 320 320" width="320" height="320">
  <circle cx="224.5" cy="1.6" r="0.98" fill="#ffffff" fill-opacity="0.55"/>
  <circle cx="44.3" cy="46.5" r="1.02" fill="#ffffff" fill-opacity="0.87"/>
  <circle cx="319.8" cy="93.5" r="1.22" fill="#ffffff" fill-opacity="0.51"/>
  <circle cx="184.5" cy="145.5" r="0.73" fill="#ffffff" fill-opacity="0.73"/>
  <circle cx="243.7" cy="236.7" r="1.20" fill="#ffffff" fill-opacity="0.66"/>
  <circle cx="164.2" cy="285.7" r="0.62" fill="#ffffff" fill-opacity="0.63"/>
  <circle cx="251.9" cy="10.8" r="1.27" fill="#ffffff" fill-opacity="0.78"/>
  <circle cx="209.4" cy="209.9" r="0.56" fill="#ffffff" fill-opacity="0.53"/>
  <circle cx="289.6" cy="6.9" r="0.83" fill="#ffffff" fill-opacity="0.75"/>
  <circle cx="110.4" cy="157.4" r="0.93" fill="#ffffff" fill-opacity="0.63"/>
  <circle cx="203.9" cy="136.6" r="1.34" fill="#ffffff" fill-opacity="0.80"/>
  <circle cx="175.3" cy="267.8" r="0.92" fill="#ffffff" fill-opacity="0.73"/>
  <circle cx="153.4" cy="305.5" r="0.91" fill="#ffffff" fill-opacity="0.37"/>
  <circle cx="254.4" cy="140.9" r="1.18" fill="#ffffff" fill-opacity="0.75"/>
  <circle cx="47.4" cy="34.1" r="0.61" fill="#ffffff" fill-opacity="0.53"/>
  <circle cx="288.4" cy="285.6" r="1.33" fill="#ffffff" fill-opacity="0.42"/>
  <circle cx="35.7" cy="178.2" r="0.75" fill="#ffffff" fill-opacity="0.48"/>
  <circle cx="310.8" cy="226.3" r="0.61" fill="#ffffff" fill-opacity="0.80"/>
  <circle cx="159.1" cy="48.8" r="0.63" fill="#ffffff" fill-opacity="0.87"/>
  <circle cx="5.7" cy="167.7" r="1.09" fill="#ffffff" fill-opacity="0.48"/>
  <circle cx="2.8" cy="2.1" r="0.99" fill="#ffffff" fill-opacity="0.83"/>
  <circle cx="133.0" cy="139.8" r="0.52" fill="#ffffff" fill-opacity="0.77"/>
  <circle cx="264.1" cy="256.9" r="1.21" fill="#ffffff" fill-opacity="0.47"/>
  <circle cx="186.0" cy="311.2" r="1.01" fill="#ffffff" fill-opacity="0.61"/>
  <circle cx="319.9" cy="81.3" r="1.18" fill="#ffffff" fill-opacity="0.72"/>
  <circle cx="44.0" cy="147.1" r="0.93" fill="#ffffff" fill-opacity="0.33"/>
  <circle cx="234.0" cy="26.7" r="0.51" fill="#ffffff" fill-opacity="0.84"/>
  <circle cx="41.9" cy="40.6" r="0.93" fill="#ffffff" fill-opacity="0.71"/>
  <circle cx="73.4" cy="229.2" r="0.84" fill="#ffffff" fill-opacity="0.41"/>
  <circle cx="94.5" cy="257.5" r="0.87" fill="#ffffff" fill-opacity="0.34"/>
  <circle cx="309.7" cy="169.2" r="1.20" fill="#ffffff" fill-opacity="0.86"/>
  <circle cx="7.8" cy="222.9" r="1.27" fill="#ffffff" fill-opacity="0.35"/>
  <circle cx="72.4" cy="48.7" r="1.37" fill="#ffffff" fill-opacity="0.33"/>
  <circle cx="216.6" cy="301.4" r="0.73" fill="#ffffff" fill-opacity="0.47"/>
  <circle cx="109.9" cy="233.6" r="0.75" fill="#ffffff" fill-opacity="0.36"/>
  <circle cx="18.3" cy="227.9" r="0.95" fill="#ffffff" fill-opacity="0.82"/>
  <circle cx="70.8" cy="130.0" r="1.02" fill="#ffffff" fill-opacity="0.83"/>
  <circle cx="262.9" cy="118.3" r="0.52" fill="#ffffff" fill-opacity="0.55"/>
  <circle cx="100.3" cy="189.7" r="1.15" fill="#ffffff" fill-opacity="0.73"/>
  <circle cx="196.8" cy="83.9" r="1.29" fill="#ffffff" fill-opacity="0.68"/>
  <circle cx="226.3" cy="9.1" r="0.78" fill="#ffffff" fill-opacity="0.50"/>
  <circle cx="96.9" cy="245.1" r="0.79" fill="#ffffff" fill-opacity="0.31"/>
  <circle cx="134.9" cy="147.9" r="0.97" fill="#ffffff" fill-opacity="0.35"/>
  <circle cx="24.5" cy="93.6" r="0.89" fill="#ffffff" fill-opacity="0.81"/>
  <circle cx="37.0" cy="136.8" r="1.25" fill="#ffffff" fill-opacity="0.62"/>
  <circle cx="233.8" cy="155.3" r="0.82" fill="#ffffff" fill-opacity="0.72"/>
  <circle cx="39.5" cy="295.4" r="0.78" fill="#ffffff" fill-opacity="0.61"/>
  <circle cx="79.7" cy="58.9" r="1.08" fill="#ffffff" fill-opacity="0.65"/>
  <circle cx="164.9" cy="140.7" r="0.95" fill="#ffffff" fill-opacity="0.54"/>
  <circle cx="268.4" cy="59.2" r="0.61" fill="#ffffff" fill-opacity="0.79"/>
  <circle cx="46.7" cy="85.4" r="0.55" fill="#ffffff" fill-opacity="0.87"/>
  <circle cx="190.3" cy="94.8" r="0.85" fill="#ffffff" fill-opacity="0.68"/>
  <circle cx="282.1" cy="284.5" r="1.35" fill="#ffffff" fill-opacity="0.42"/>
  <circle cx="285.7" cy="161.5" r="1.14" fill="#ffffff" fill-opacity="0.52"/>
  <circle cx="215.8" cy="112.4" r="1.20" fill="#ffffff" fill-opacity="0.78"/>
  <circle cx="28.4" cy="118.7" r="0.81" fill="#ffffff" fill-opacity="0.42"/>
  <circle cx="53.8" cy="118.3" r="1.05" fill="#ffffff" fill-opacity="0.50"/>
  <circle cx="30.4" cy="220.4" r="1.10" fill="#ffffff" fill-opacity="0.38"/>
</svg>
